<?xml version="1.0" encoding="UTF-8"?>
<svg width="1000" height="1000" version="1.1" viewBox="0 0 1000 1000" xmlns="http://www.w3.org/2000/svg">
 <g transform="translate(0 -52.362)">
  <circle cx="500" cy="552.36" r="450" fill="none"/>
  <g transform="translate(0 52.362)" fill="#8b1538">
   <path d="m500 100c-220.91 0-400 179.09-400 400s179.09 400 400 400 400-179.09 400-400-179.09-400-400-400zm0 50c193.3 0 350 156.7 350 350s-156.7 350-350 350-350-156.7-350-350 156.7-350 350-350z"/>
   <path d="m350 300h300v100h-100v300h-100v-300h-100z"/>
  </g>
  <text x="250" y="950" fill="#000000" font-family="serif" font-size="100px" style="line-height:1.25" xml:space="preserve"><tspan x="250" y="950">FİRAT ÜNİVERSİTESİ</tspan></text>
  <text x="450" y="1020" fill="#000000" font-family="serif" font-size="80px" style="line-height:1.25" xml:space="preserve"><tspan x="450" y="1020">1975</tspan></text>
 </g>
</svg>
